<svg width="273" height="76" viewBox="0 0 273 76" fill="none" xmlns="http://www.w3.org/2000/svg">
<mask id="mask0_692_2483" style="mask-type:luminance" maskUnits="userSpaceOnUse" x="0" y="0" width="76" height="76">
<path d="M76 0H0V76H76V0Z" fill="white"/>
</mask>
<g mask="url(#mask0_692_2483)">
<path d="M53.7812 59.3942C49.82 62.3202 45.1248 64.0891 40.2174 64.5044C35.3105 64.9194 30.3847 63.964 25.9885 61.7445C21.5924 59.5253 17.8987 56.1292 15.3187 51.9348C12.7387 47.7399 11.3738 42.9117 11.376 37.987C11.3782 33.0625 12.7474 28.2352 15.3311 24.0429C17.9148 19.8506 21.6115 16.4578 26.0096 14.2424C30.4077 12.0271 35.3345 11.0761 40.241 11.4955C45.1479 11.9148 49.8417 13.688 53.8002 16.6176L61.1684 7.87755C55.5444 3.55147 48.8218 0.886307 41.7614 0.183806C34.7011 -0.518694 27.585 0.769533 21.219 3.90264C14.8531 7.03574 9.49137 11.8886 5.74107 17.9116C1.9908 23.9347 0.00171086 30.8875 -0.000973841 37.9827C-0.00365854 45.078 1.98017 52.032 5.72591 58.0581C9.47161 64.0841 14.8296 68.9409 21.1932 72.0789C27.5569 75.2166 34.6719 76.5105 41.7329 75.8132C48.7937 75.1159 55.5185 72.4559 61.1456 68.1342L53.7812 59.3942Z" fill="black"/>
<path d="M56.3955 57.1864L63.7599 65.9264C67.6184 62.3692 70.6983 58.0517 72.8054 53.2454C74.9125 48.4392 76.0012 43.2484 76.0027 38.0006C76.0046 32.7527 74.9194 27.5613 72.8157 22.7537C70.7116 17.9459 67.6348 13.6261 63.7789 10.0664L56.4069 18.8064C59.0012 21.2841 61.0665 24.2621 62.4774 27.5604C63.888 30.8588 64.6157 34.409 64.6157 37.9964C64.6157 41.584 63.888 45.1339 62.4774 48.4323C61.0665 51.7307 59.0012 54.7088 56.4069 57.1864H56.3955Z" fill="#FF9900"/>
</g>
<path d="M215.257 2.27979V63.3078H222.531V2.27979H215.257Z" fill="black"/>
<path fill-rule="evenodd" clip-rule="evenodd" d="M251.35 57.5398C243.575 57.5398 237.639 53.2762 236.218 45.7522H271.247C271.414 44.6654 271.497 43.5786 271.497 42.4918C271.497 30.7878 263.305 20.4214 250.681 20.4214C237.639 20.4214 228.778 30.0354 228.778 42.4082C228.778 54.9482 237.723 64.395 251.183 64.395C259.543 64.395 265.896 60.633 269.575 54.9482L263.388 51.437C261.298 54.8646 257.118 57.5398 251.35 57.5398ZM236.218 39.3986C237.389 32.1254 242.823 27.2766 250.681 27.2766C256.951 27.2766 262.887 31.1222 264.141 39.3986H236.218Z" fill="black"/>
<path d="M191.774 64.395C179.151 64.395 169.788 54.781 169.788 42.4082C169.788 30.0354 179.151 20.4214 191.774 20.4214C200.051 20.4214 207.073 24.7686 210.25 31.373L204.147 34.8842C202.057 30.4534 197.376 27.5274 191.774 27.5274C183.414 27.5274 177.061 33.9646 177.061 42.4082C177.061 50.7682 183.414 57.2054 191.774 57.2054C197.459 57.2054 202.057 54.2794 204.398 49.9322L210.584 53.527C207.073 60.0478 199.967 64.395 191.774 64.395Z" fill="black"/>
<path d="M169.806 20.7554C164.539 20.7554 159.439 22.6782 156.764 28.5302V21.5078H149.491V63.3078H156.764V41.1538C156.764 31.289 163.536 28.1122 169.806 28.363V20.7554Z" fill="black"/>
<path d="M137.308 13.9003C134.549 13.9003 132.375 11.7267 132.375 9.05154C132.375 6.37634 134.549 4.11914 137.308 4.11914C139.983 4.11914 142.157 6.37634 142.157 9.05154C142.157 11.7267 139.983 13.9003 137.308 13.9003Z" fill="black"/>
<path d="M133.63 63.3078V21.5078H140.903V63.3078H133.63Z" fill="black"/>
<path d="M88.1602 42.4082C88.1602 54.781 97.5233 64.395 110.147 64.395C118.34 64.395 125.446 60.0478 128.957 53.527L122.771 49.9322C120.43 54.2794 115.832 57.2054 110.147 57.2054C101.787 57.2054 95.4334 50.7682 95.4334 42.4082C95.4334 33.9646 101.787 27.5274 110.147 27.5274C115.748 27.5274 120.43 30.4534 122.52 34.8842L128.623 31.373C125.446 24.7686 118.423 20.4214 110.147 20.4214C97.5233 20.4214 88.1602 30.0354 88.1602 42.4082Z" fill="black"/>
</svg>
