<svg width="326" height="76" viewBox="0 0 326 76" fill="none" xmlns="http://www.w3.org/2000/svg">
<g clip-path="url(#clip0_692_2428)">
<path d="M37.8799 24.16L0.379883 0V39.0401H75.3797V0L37.8799 24.16Z" fill="#FF5F38"/>
<path d="M37.8799 76.0001L75.3797 39.0402L37.8799 24.1602L0.379883 39.0402L37.8799 76.0001Z" fill="#9F1900"/>
<path d="M29.6499 67.8902L37.8799 76.0001L46.1098 67.8902L37.8799 59.7251L29.6499 67.8902Z" fill="black"/>
<path d="M0.379883 39.0402L37.8799 24.1602L75.3797 39.0402L37.8799 59.7251L0.379883 39.0402Z" fill="#F02600"/>
<path d="M89.8799 58.5014V18.9258H112.877L111.958 25.0488H98.2874V36.2586H110.18V42.3697H98.2874V58.5014H89.8799Z" fill="black"/>
<path d="M147.578 20.4447C150.27 22.1282 152.386 24.5928 153.642 27.5097C156.477 34.6977 156.477 42.6941 153.642 49.8822C152.376 52.7926 150.263 55.2547 147.578 56.9472C144.737 58.6522 141.469 59.5103 138.157 59.4198C134.853 59.5053 131.59 58.6652 128.738 56.9943C126.035 55.3128 123.907 52.8489 122.638 49.9293C121.136 46.3874 120.405 42.5661 120.495 38.7197C120.397 34.9182 121.128 31.1412 122.638 27.651C123.918 24.7067 126.051 22.2131 128.761 20.4918C131.589 18.7783 134.852 17.9158 138.157 18.0073C141.465 17.9115 144.732 18.7568 147.578 20.4447ZM131.658 27.7335C130.19 30.0178 129.456 33.6799 129.456 38.7197C129.456 43.7593 130.198 47.4172 131.681 49.6937C132.362 50.7874 133.319 51.6811 134.457 52.285C135.594 52.8888 136.871 53.181 138.157 53.132C139.449 53.1981 140.736 52.9177 141.883 52.3192C143.03 51.7207 143.996 50.8265 144.681 49.7291C146.133 47.4525 146.855 43.7828 146.848 38.7197C146.84 33.6563 146.117 29.9825 144.681 27.6981C143.996 26.6007 143.03 25.7065 141.883 25.1082C140.736 24.5098 139.449 24.2291 138.157 24.2951C136.859 24.231 135.566 24.516 134.415 25.1207C133.263 25.7254 132.295 26.6276 131.611 27.7335H131.658Z" fill="black"/>
<path d="M183.915 37.1652L195.466 58.5014H186.199L178.828 42.8291L171.563 58.5014H162.579L173.847 37.4596L163.497 18.9258H172.705L178.934 32.1373L185.457 18.9258H194.383L183.915 37.1652Z" fill="black"/>
<path d="M235.643 58.5016V39.4028H216.873V58.5605H213.447V19.3853H216.873V36.4826H235.643V19.3853H239.069V58.5605L235.643 58.5016Z" fill="black"/>
<path d="M282.707 46.2675C282.872 49.697 281.684 53.0543 279.399 55.617C277.185 57.9719 273.998 59.1495 269.837 59.1495C265.677 59.1495 262.486 57.9719 260.264 55.617C257.961 53.0372 256.775 49.6495 256.967 46.1968V19.3853H260.406V46.0319C260.406 49.3174 261.171 51.8372 262.76 53.5916C264.35 55.3461 266.67 56.2174 269.825 56.2174C272.981 56.2174 275.395 55.3343 276.89 53.5563C278.537 51.4066 279.348 48.7337 279.175 46.0319V19.3853H282.707V46.2675Z" fill="black"/>
<path d="M322.86 40.5801C324.54 42.1502 325.38 44.5051 325.38 47.6454C325.38 51.3033 324.14 54.0313 321.659 55.8287C319.178 57.6265 315.728 58.5214 311.309 58.5134H300.652V19.3853H309.401C313.935 19.3853 317.432 20.1977 319.893 21.8462C321.093 22.6369 322.066 23.7277 322.714 25.0104C323.363 26.2931 323.665 27.7231 323.59 29.1585C323.699 31.3006 322.993 33.4044 321.612 35.046C320.247 36.5589 318.399 37.5497 316.384 37.8484C318.783 38.0287 321.057 38.9879 322.86 40.5801ZM304.02 22.1995V36.5532H311.909C314.041 36.657 316.136 35.9739 317.797 34.6339C318.542 33.9771 319.129 33.1605 319.515 32.2451C319.9 31.3296 320.074 30.3389 320.022 29.3469C320.117 28.2834 319.925 27.214 319.468 26.2493C319.01 25.2846 318.303 24.4597 317.42 23.8598C315.685 22.7529 313.103 22.1995 309.672 22.1995H304.02ZM321.848 47.6454C321.937 46.4666 321.747 45.2837 321.295 44.1916C320.843 43.0991 320.141 42.1286 319.245 41.3575C317.249 39.901 314.813 39.1737 312.345 39.2968H304.103V55.6524H311.368C318.354 55.6444 321.848 52.9753 321.848 47.6454Z" fill="black"/>
</g>
<defs>
<clipPath id="clip0_692_2428">
<rect width="325.66" height="76" fill="white"/>
</clipPath>
</defs>
</svg>
