<svg width="321" height="76" viewBox="0 0 321 76" fill="none" xmlns="http://www.w3.org/2000/svg">
<path d="M38.0401 36.9688C38.0401 36.9688 37.5198 30.4873 37.5198 21.8452C36.8765 15.3712 35.5522 9.20558 32.0526 8.89667C30.8017 8.78628 29.6556 9.7752 28.6572 11.6636C30.5237 5.20771 38.0401 0 38.0401 0C38.0401 0 45.5569 5.20771 47.4231 11.6636C46.4248 9.7752 45.2788 8.78628 44.0278 8.89667C40.5284 9.20558 39.1231 15.3712 38.4798 21.8452C38.4798 30.4873 38.0401 36.9688 38.0401 36.9688Z" fill="url(#paint0_linear_692_2561)"/>
<path d="M37.9597 39.0312C37.9597 39.0312 38.48 45.5125 38.48 54.1549C39.1233 60.6286 40.4476 66.7944 43.9474 67.1034C45.198 67.2136 46.3441 66.2248 47.3427 64.3362C45.4762 70.792 37.9597 75.9999 37.9597 75.9999C37.9597 75.9999 30.4431 70.792 28.5767 64.3362C29.5751 66.2248 30.7212 67.2136 31.9721 67.1034C35.4716 66.7944 36.8766 60.6286 37.5199 54.1549C37.5199 45.5125 37.9597 39.0312 37.9597 39.0312Z" fill="url(#paint1_linear_692_2561)"/>
<path d="M39.0312 38.0401C39.0312 38.0401 45.5125 37.5198 54.1549 37.5198C60.6286 36.8765 66.7944 35.5522 67.1034 32.0526C67.2136 30.8017 66.2248 29.6556 64.3362 28.6572C70.792 30.5237 75.9999 38.0401 75.9999 38.0401C75.9999 38.0401 70.792 45.5569 64.3362 47.4231C66.2248 46.4248 67.2136 45.2788 67.1034 44.0278C66.7944 40.5284 60.6286 39.1231 54.1549 38.4798C45.5125 38.4798 39.0312 38.0401 39.0312 38.0401Z" fill="url(#paint2_linear_692_2561)"/>
<path d="M36.9688 37.9597C36.9688 37.9597 30.4873 38.48 21.8452 38.48C15.3712 39.1233 9.20558 40.4476 8.89667 43.9474C8.78625 45.198 9.7752 46.3441 11.6636 47.3427C5.20771 45.4762 0 37.9597 0 37.9597C0 37.9597 5.20771 30.4431 11.6636 28.5767C9.7752 29.5751 8.78628 30.7212 8.89667 31.9721C9.20558 35.4716 15.3712 36.8766 21.8452 37.5199C30.4873 37.5199 36.9688 37.9597 36.9688 37.9597Z" fill="url(#paint3_linear_692_2561)"/>
<path d="M38.7578 37.2991C38.7578 37.2991 42.9728 32.348 49.0836 26.2371C53.2066 21.2044 56.63 15.9082 54.3739 13.2153C53.5672 12.2526 52.0578 12.1415 50.0164 12.7708C55.9011 9.52565 64.8984 11.1582 64.8984 11.1582C64.8984 11.1582 66.5313 20.1556 63.2861 26.0404C63.9153 23.9991 63.804 22.4894 62.8414 21.683C60.1484 19.4269 54.7953 22.7931 49.7626 26.9161C43.6518 33.0269 38.7578 37.2991 38.7578 37.2991Z" fill="url(#paint4_linear_692_2561)"/>
<path d="M37.242 38.7002C37.242 38.7002 33.0269 43.6516 26.916 49.7624C22.7931 54.7951 19.3697 60.0912 21.6259 62.7842C22.4323 63.7468 23.942 63.8581 25.9833 63.2288C20.0985 66.474 11.1011 64.8412 11.1011 64.8412C11.1011 64.8412 9.46852 55.8439 12.7137 49.9592C12.0844 52.0006 12.1955 53.5099 13.1581 54.3167C15.8511 56.5727 21.2043 53.2063 26.237 49.0833C32.3479 42.9725 37.242 38.7002 37.242 38.7002Z" fill="url(#paint5_linear_692_2561)"/>
<path d="M38.7002 38.7578C38.7002 38.7578 43.6516 42.9728 49.7624 49.0836C54.7951 53.2066 60.0912 56.63 62.7842 54.3739C63.7468 53.5676 63.8581 52.0578 63.2288 50.0164C66.4736 55.9011 64.8412 64.8988 64.8412 64.8988C64.8412 64.8988 55.8439 66.5313 49.9592 63.2861C52.0002 63.9153 53.5099 63.8044 54.3163 62.8414C56.5727 60.1488 53.2063 54.7953 49.0833 49.7626C42.9725 43.6518 38.7002 38.7578 38.7002 38.7578Z" fill="url(#paint6_linear_692_2561)"/>
<path d="M37.2991 37.2425C37.2991 37.2425 32.348 33.0274 26.2371 26.9165C21.2044 22.7936 15.9082 19.3702 13.2153 21.6263C12.2526 22.4328 12.1415 23.9424 12.7708 25.9838C9.52565 20.099 11.1582 11.1016 11.1582 11.1016C11.1582 11.1016 20.1556 9.46901 26.0404 12.7142C23.9991 12.0848 22.4895 12.196 21.683 13.1586C19.4269 15.8516 22.7931 21.2048 26.9161 26.2375C33.0269 32.3484 37.2991 37.2425 37.2991 37.2425Z" fill="url(#paint7_linear_692_2561)"/>
<path d="M293.26 50.3118V50.0268L295.711 47.4618H295.996C298.732 50.8248 302.095 53.1618 306.883 53.1618C312.07 53.1618 315.376 50.4258 315.376 46.7778C315.376 42.0468 309.847 40.5648 303.862 38.1708C300.043 36.6319 294.856 34.2949 294.856 28.4239C294.856 22.6669 299.758 18.5059 306.712 18.5059C312.013 18.5059 316.117 20.8999 318.625 24.2059V24.4909L316.06 26.8849H315.775C313.609 24.2059 310.645 22.2679 306.712 22.2679C302.38 22.2679 299.074 24.6049 299.074 28.0249C299.074 31.4449 302.323 32.9839 306.256 34.5229C312.184 36.8599 319.594 39.1398 319.594 46.6068C319.594 52.8768 314.35 56.9238 307.111 56.9238C301.012 56.9238 296.11 54.0738 293.26 50.3118Z" fill="black"/>
<path d="M282.116 52.9339L283.085 55.8409L282.914 56.1259C282.059 56.6959 281.261 56.9239 279.893 56.9239C277.271 56.9239 274.535 54.9289 272.027 52.0219L261.197 39.4819L257.72 43.1299V56.2399H253.616V19.1899H257.72V37.8289L275.504 19.1899H280.463L280.634 19.4179L264.047 36.7459L275.333 49.8559C277.556 52.4209 278.81 53.2189 280.178 53.2189C280.862 53.2189 281.375 53.1049 281.831 52.8199L282.116 52.9339Z" fill="black"/>
<path d="M217.628 56.9238C206.57 56.9238 198.077 48.7158 198.077 37.7149C198.077 26.7139 206.57 18.5059 217.628 18.5059C228.686 18.5059 237.179 26.7139 237.179 37.7149C237.179 48.7158 228.686 56.9238 217.628 56.9238ZM217.628 53.1618C226.349 53.1618 232.961 46.7208 232.961 37.7149C232.961 28.7089 226.349 22.2679 217.628 22.2679C208.907 22.2679 202.295 28.7089 202.295 37.7149C202.295 46.7208 208.907 53.1618 217.628 53.1618Z" fill="black"/>
<path d="M164.825 56.9238C153.767 56.9238 145.274 48.7158 145.274 37.7149C145.274 26.7139 153.767 18.5059 164.825 18.5059C175.883 18.5059 184.376 26.7139 184.376 37.7149C184.376 48.7158 175.883 56.9238 164.825 56.9238ZM164.825 53.1618C173.546 53.1618 180.158 46.7208 180.158 37.7149C180.158 28.7089 173.546 22.2679 164.825 22.2679C156.104 22.2679 149.492 28.7089 149.492 37.7149C149.492 46.7208 156.104 53.1618 164.825 53.1618Z" fill="black"/>
<path d="M124.777 19.1899H128.881V56.2399H124.777V39.3679H102.262V56.2399H98.1577V19.1899H102.262V35.7199H124.777V19.1899Z" fill="black"/>
<defs>
<linearGradient id="paint0_linear_692_2561" x1="-10.2601" y1="70.3" x2="86.2599" y2="5.7" gradientUnits="userSpaceOnUse">
<stop stop-color="#DD37E0"/>
<stop offset="1" stop-color="#0BA7FF"/>
</linearGradient>
<linearGradient id="paint1_linear_692_2561" x1="-10.2599" y1="70.2999" x2="86.2601" y2="5.69993" gradientUnits="userSpaceOnUse">
<stop stop-color="#DD37E0"/>
<stop offset="1" stop-color="#0BA7FF"/>
</linearGradient>
<linearGradient id="paint2_linear_692_2561" x1="-10.2601" y1="70.2999" x2="86.2599" y2="5.69986" gradientUnits="userSpaceOnUse">
<stop stop-color="#DD37E0"/>
<stop offset="1" stop-color="#0BA7FF"/>
</linearGradient>
<linearGradient id="paint3_linear_692_2561" x1="-10.26" y1="70.3001" x2="86.26" y2="5.70005" gradientUnits="userSpaceOnUse">
<stop stop-color="#DD37E0"/>
<stop offset="1" stop-color="#0BA7FF"/>
</linearGradient>
<linearGradient id="paint4_linear_692_2561" x1="-10.2599" y1="70.2998" x2="86.2601" y2="5.69981" gradientUnits="userSpaceOnUse">
<stop stop-color="#DD37E0"/>
<stop offset="1" stop-color="#0BA7FF"/>
</linearGradient>
<linearGradient id="paint5_linear_692_2561" x1="-10.2602" y1="70.2999" x2="86.2598" y2="5.69984" gradientUnits="userSpaceOnUse">
<stop stop-color="#DD37E0"/>
<stop offset="1" stop-color="#0BA7FF"/>
</linearGradient>
<linearGradient id="paint6_linear_692_2561" x1="-10.2601" y1="70.3001" x2="86.2599" y2="5.7001" gradientUnits="userSpaceOnUse">
<stop stop-color="#DD37E0"/>
<stop offset="1" stop-color="#0BA7FF"/>
</linearGradient>
<linearGradient id="paint7_linear_692_2561" x1="-10.2602" y1="70.3002" x2="86.2598" y2="5.70024" gradientUnits="userSpaceOnUse">
<stop stop-color="#DD37E0"/>
<stop offset="1" stop-color="#0BA7FF"/>
</linearGradient>
</defs>
</svg>
