<svg width="236" height="76" viewBox="0 0 236 76" fill="none" xmlns="http://www.w3.org/2000/svg">
<g clip-path="url(#clip0_692_2551)">
<path d="M12.7414 3.51123H32.0188L41.6519 20.083L32.0188 36.6548H12.7414L3.1084 20.083L12.7414 3.51123Z" fill="#FBB03B"/>
<path d="M32.0188 72.485H12.7414L3.1084 55.917L12.7414 39.3452H32.0188L33.2234 41.4124L41.6519 55.917L32.0188 72.485Z" fill="#FBB03B"/>
<path d="M43.9813 54.5719L42.7767 52.5009L34.3481 38L43.9813 21.4282H63.2587L72.8917 38L63.2587 54.5719H43.9813Z" fill="#FBB03B"/>
<path d="M76 38.0001L64.8052 18.7417H43.9812L33.5654 0.824707H11.1948L0 20.0831L10.412 38.0001L0 55.9171L11.1948 75.1755H33.5654L43.9812 57.2585H64.8052L76 38.0001ZM12.7414 3.51131H32.0188L41.6518 20.0831L32.0188 36.6549H12.7414L3.1084 20.0831L12.7414 3.51131ZM32.0188 72.4889H12.7414L3.1084 55.9171L12.7414 39.3453H32.0188L33.2234 41.4201L41.6518 55.9247L32.0188 72.4889ZM43.9812 54.5719L42.7766 52.5009L34.3482 38.0001L43.9812 21.4283H63.2586L72.8916 38.0001L63.2586 54.5719H43.9812Z" fill="black"/>
<path d="M94.0156 64.4593H100.799C101.916 64.4593 102.474 63.9007 102.474 62.7835V38.6041C102.474 34.5609 104.31 32.5393 107.981 32.5393H110.853C112.556 32.5393 113.753 32.9117 114.444 33.6565C115.189 34.3481 115.562 35.5451 115.562 37.2475V62.7835C115.562 63.9007 116.12 64.4593 117.237 64.4593H123.941C125.111 64.4593 125.696 63.9007 125.696 62.7835V36.7687C125.696 28.0971 121.52 23.7613 113.168 23.7613H110.614C106.571 23.7613 103.964 25.1977 102.794 28.0705H102.474V10.0357C102.474 8.91846 101.916 8.35986 100.799 8.35986H94.0156C92.8984 8.35986 92.3398 8.91846 92.3398 10.0357V62.7835C92.3398 63.9007 92.8984 64.4593 94.0156 64.4593Z" fill="black"/>
<path fill-rule="evenodd" clip-rule="evenodd" d="M161.721 64.4593H144.085C139.882 64.4593 136.637 63.3421 134.349 61.1077C132.062 58.8733 130.918 55.6547 130.918 51.4519V36.7686C130.918 32.5658 132.062 29.3472 134.349 27.1128C136.637 24.8784 139.882 23.7612 144.085 23.7612H150.389C154.592 23.7612 157.837 24.8784 160.125 27.1128C162.412 29.3472 163.556 32.5658 163.556 36.7686V46.9033C163.556 48.0205 162.998 48.5791 161.88 48.5791H141.851C141.212 48.5791 140.893 48.8717 140.893 49.4569V51.2125C140.893 52.8617 141.239 54.0587 141.93 54.8035C142.676 55.4951 143.899 55.8409 145.601 55.8409H161.721C162.838 55.8409 163.397 56.4261 163.397 57.5965V62.8633C163.397 63.4485 163.264 63.8741 162.998 64.1401C162.785 64.3529 162.359 64.4593 161.721 64.4593ZM141.851 41.7961H152.703C153.289 41.7961 153.581 41.5035 153.581 40.9183V37.0878C153.581 35.3854 153.235 34.1884 152.544 33.4968C151.852 32.8052 150.655 32.4594 148.953 32.4594H145.601C143.899 32.4594 142.702 32.8052 142.01 33.4968C141.319 34.1884 140.973 35.3854 140.973 37.0878V40.9183C140.973 41.5035 141.265 41.7961 141.851 41.7961Z" fill="black"/>
<path d="M167.238 64.4593H175.298C176.522 64.4593 177.32 63.9007 177.692 62.7835L182.72 50.5741H183.039L188.066 62.7835C188.545 63.9007 189.343 64.4593 190.46 64.4593H198.68C199.212 64.4593 199.557 64.2997 199.717 63.9805C199.93 63.6613 199.903 63.2623 199.637 62.7835L189.343 43.7113L198.919 25.437C199.611 24.3198 199.265 23.7612 197.882 23.7612H189.902C188.625 23.7612 187.8 24.3198 187.428 25.437L183.039 37.5666H182.72L177.692 25.437C177.32 24.3198 176.495 23.7612 175.218 23.7612H167.079C165.908 23.7612 165.589 24.3198 166.121 25.437L176.176 43.7113L166.121 62.7835C165.483 63.9007 165.855 64.4593 167.238 64.4593Z" fill="black"/>
<path fill-rule="evenodd" clip-rule="evenodd" d="M215.59 64.4593H217.506C219.155 64.4593 220.724 64.1135 222.214 63.4219C223.703 62.6771 224.741 61.5865 225.326 60.1501H225.645V62.7835C225.645 63.9007 226.204 64.4593 227.321 64.4593H234.024C235.195 64.4593 235.78 63.9007 235.78 62.7835V25.437C235.78 24.3198 235.195 23.7612 234.024 23.7612H215.59C211.388 23.7612 208.142 24.8784 205.855 27.1128C203.567 29.3472 202.423 32.5658 202.423 36.7686V51.4519C202.423 55.6547 203.567 58.8733 205.855 61.1077C208.142 63.3421 211.388 64.4593 215.59 64.4593ZM225.645 33.417V49.6165C225.645 53.6597 223.81 55.6813 220.139 55.6813H217.186C215.484 55.6813 214.287 55.3355 213.595 54.6439C212.904 53.8991 212.558 52.6755 212.558 50.9731V37.2474C212.558 35.545 212.904 34.348 213.595 33.6564C214.287 32.9116 215.484 32.5392 217.186 32.5392H224.688C225.326 32.5392 225.645 32.8318 225.645 33.417Z" fill="black"/>
</g>
<defs>
<clipPath id="clip0_692_2551">
<rect width="235.98" height="76" fill="white"/>
</clipPath>
</defs>
</svg>
