<svg width="328" height="76" viewBox="0 0 328 76" fill="none" xmlns="http://www.w3.org/2000/svg">
<g clip-path="url(#clip0_692_2521)">
<mask id="mask0_692_2521" style="mask-type:luminance" maskUnits="userSpaceOnUse" x="0" y="0" width="328" height="76">
<path d="M327.56 0H0V76H327.56V0Z" fill="white"/>
</mask>
<g mask="url(#mask0_692_2521)">
<path fill-rule="evenodd" clip-rule="evenodd" d="M70.3038 58.0119C74.0229 52.0087 76 45.079 76 38C76 27.9218 71.9963 18.2563 64.8702 11.1299C57.7437 4.00357 48.0784 0 38 0C30.4843 0 23.1374 2.22866 16.8883 6.40414C10.6393 10.5797 5.76874 16.5144 2.89259 23.458C0.0164653 30.4016 -0.736063 38.0422 0.730178 45.4134C2.19642 52.7847 5.81556 59.5555 11.13 64.8702C16.4443 70.1845 23.2153 73.8036 30.5866 75.27C37.9579 76.7361 45.5985 75.9837 52.5418 73.1074C59.4856 70.2312 65.4204 65.3608 69.5959 59.1117C69.833 58.7564 70.064 58.3976 70.289 58.0359L70.3 58.0374C70.3011 58.0287 70.3023 58.0203 70.3038 58.0119ZM38.6327 4.56597C33.7609 13.8854 30.2869 15.7421 27.7057 17.1C25.3991 18.3274 23.8791 19.1368 21.6029 29.0016C19.5478 37.907 13.7409 44.433 5.79211 46.9935C6.73862 50.3831 8.21932 53.6203 10.1957 56.5782C10.3064 56.7439 10.4186 56.9088 10.5321 57.0722C13.15 50.9952 20.6309 45.6669 31.6312 42.2826C38.2774 40.2344 38.038 36.86 36.86 29.4234C36.3888 26.4404 35.8568 23.0546 36.1 19.5966C36.3356 16.2754 37.886 12.7566 40.3522 9.94844C41.9436 8.13424 43.8725 6.65703 46.0727 5.54903C43.6483 4.94593 41.1532 4.61366 38.6327 4.56597ZM19.3608 65.7636C17.4554 64.4845 15.6862 63.012 14.0817 61.37C14.5938 54.6497 24.0799 49.3761 32.9764 46.6374C43.6886 43.3428 42.4612 35.5528 41.3782 28.7128C40.9222 25.8362 40.451 22.8608 40.66 19.9234C41.1662 12.7756 48.0293 9.00186 52.9017 8.06379C54.1663 8.69341 55.3949 9.40485 56.5782 10.1957C56.7393 10.3033 56.8997 10.4123 57.0585 10.5226C53.5124 13.2437 48.3611 19.0545 48.64 29.6856C48.7194 32.7538 49.7025 35.6664 50.7429 38.7494L50.7452 38.7562L50.7456 38.7573C52.9644 45.3462 55.2592 52.1592 49.6812 62.3504C47.1059 67.0692 44.8632 68.9278 41.5678 71.2492C40.0702 71.41 38.5666 71.4689 37.0679 71.4271C40.7117 68.0743 44.9669 63.1632 44.5056 58.8278C44.327 57.1748 43.4568 54.91 40.0558 53.3976C36.6547 51.8852 33.3183 51.8358 30.1339 53.2494C24.7345 55.651 21.1652 61.8317 19.3608 65.7636ZM53.2 29.5792C52.9408 19.8023 58.1921 15.1617 60.7479 13.4893C63.2495 15.8112 65.3832 18.5043 67.0719 21.4756C63.7351 23.3019 60.04 26.8828 60.04 32.68C60.04 36.7802 61.731 40.4054 63.384 43.9052C65.0856 47.5555 66.706 51.0325 66.709 55.1471C65.303 57.5012 63.6052 59.6858 61.6455 61.6455C58.5565 64.7345 54.9085 67.173 50.9181 68.8442C51.8388 67.648 52.7497 66.2507 53.6788 64.5544C60.1969 52.6539 57.3644 44.1853 55.0882 37.3795L55.0658 37.3122C54.0968 34.4432 53.2608 31.9656 53.2 29.5792ZM69.5563 49.0652C68.8389 46.6625 67.8156 44.4592 66.8485 42.3772L66.8116 42.2978C65.284 39.0298 63.84 35.9404 63.84 32.68C63.84 28.4281 66.6224 26.0664 68.7602 24.8837C68.8055 24.9899 68.8503 25.0963 68.8944 25.2031C71.4256 31.3134 72.0879 38.0372 70.7974 44.5238C70.4896 46.0712 70.0743 47.5882 69.5563 49.0652ZM23.3237 68.0474C23.94 68.3483 24.5667 68.631 25.2031 68.8944C27.0527 69.6608 28.9585 70.2555 30.8969 70.677C35.0716 67.4014 40.2766 62.0783 39.9798 59.3104L39.9794 59.3081C39.949 59.0292 39.8688 58.2977 38.2128 57.5624C36.0125 56.5858 33.9795 56.5364 31.9959 57.418C28.0005 59.1899 24.9368 64.4358 23.3237 68.0474ZM4.86419 42.5C11.0886 40.3366 15.4965 35.1886 17.1569 27.987C19.7599 16.6744 22.0399 14.953 25.5625 13.0872C27.4974 12.065 29.8045 10.8292 33.2455 4.90466C26.1383 5.93256 19.5029 9.22811 14.3655 14.3654C8.09643 20.6345 4.57007 29.1343 4.56 38C4.56 39.5109 4.66237 41.0142 4.86419 42.5Z" fill="url(#paint0_linear_692_2521)"/>
<path d="M279.855 41.7188L267.28 56.076V56.1566H286.062V58.0649H264.383V56.3865L278.418 40.2935C280.637 37.7876 283.016 35.0633 283.016 30.9941C283.016 27.2007 280.189 23.5338 274.74 23.5338C269.291 23.5338 266.337 27.4077 266.337 31.316V31.4539H264.21V31.3504C264.21 26.6605 267.694 21.6602 274.763 21.6602C281.602 21.6602 285.246 26.0627 285.246 31.109C285.246 35.4572 282.439 38.718 279.986 41.5672L279.855 41.7188Z" fill="black"/>
<path d="M120.995 58.1566H97.6602V22.4072H120.995V28.5341H105.178V37.2243H120.052V42.9372H105.178V52.0298H120.995V58.1566Z" fill="black"/>
<path fill-rule="evenodd" clip-rule="evenodd" d="M125.099 58.1566L136.927 22.4072H145.939L157.652 58.1566H149.606L146.962 49.2824H135.341L132.663 58.1566H125.099ZM141.019 29.5226L136.824 43.696H145.479L141.341 29.5226H141.019Z" fill="black"/>
<path fill-rule="evenodd" clip-rule="evenodd" d="M190.137 33.8217C190.137 27.3845 185.999 22.4072 177.412 22.4072H162.848V58.1566H170.308V45.0063H176.205L182.412 58.1566H190.85L183.666 43.88C185.635 43.055 187.308 41.652 188.464 39.8561C189.62 38.0603 190.203 35.9562 190.137 33.8217ZM176.205 39.4313H170.308V28.2467H176.309C179.757 28.2467 182.332 30.1549 182.332 33.9942C182.332 37.5462 179.976 39.4313 176.205 39.4313Z" fill="black"/>
<path d="M203.897 28.695H193.874V22.4072H221.508V28.695H211.472V58.1566H203.897V28.695Z" fill="black"/>
<path d="M248.647 36.8105H234.244V22.4072H226.646V58.1566H234.244V43.0409H248.647V58.1566H256.245V22.4072H248.647V36.8105Z" fill="black"/>
<path d="M296.018 54.4204C295.477 54.4235 294.96 54.6404 294.578 55.0238C294.197 55.4073 293.983 55.926 293.983 56.4667C293.983 56.7327 294.036 56.9964 294.138 57.2419C294.241 57.4874 294.392 57.7101 294.58 57.8974C294.77 58.0844 294.994 58.2322 295.241 58.3318C295.488 58.4317 295.752 58.4815 296.018 58.4784C296.556 58.4815 297.072 58.2713 297.456 57.8947C297.839 57.5178 298.058 57.0044 298.064 56.4667C298.058 55.926 297.84 55.4088 297.458 55.0265C297.076 54.6439 296.559 54.4265 296.018 54.4204Z" fill="black"/>
<path fill-rule="evenodd" clip-rule="evenodd" d="M304.375 39.0752C304.375 27.833 308.984 21.6602 315.985 21.6602C322.962 21.6602 327.56 27.8675 327.56 39.0752V41.5121C327.56 52.754 322.996 58.904 315.985 58.904C308.973 58.904 304.375 52.754 304.375 41.5121V39.0752ZM315.985 56.9956C321.537 56.9956 325.387 51.6277 325.387 41.5695V38.9946C325.387 28.9365 321.571 23.5913 315.985 23.5913C310.398 23.5913 306.547 28.9365 306.547 38.9946V41.5695C306.547 51.6277 310.432 56.9956 315.985 56.9956Z" fill="black"/>
</g>
</g>
<defs>
<linearGradient id="paint0_linear_692_2521" x1="82.1484" y1="60.0742" x2="44.4638" y2="2.03296" gradientUnits="userSpaceOnUse">
<stop stop-color="#019C85"/>
<stop offset="1" stop-color="#BEDC7C"/>
</linearGradient>
<clipPath id="clip0_692_2521">
<rect width="327.56" height="76" fill="white"/>
</clipPath>
</defs>
</svg>
