<svg width="266" height="76" viewBox="0 0 266 76" fill="none" xmlns="http://www.w3.org/2000/svg">
<g clip-path="url(#clip0_692_2468)">
<mask id="mask0_692_2468" style="mask-type:luminance" maskUnits="userSpaceOnUse" x="0" y="0" width="266" height="76">
<path d="M265.62 0H0V76H265.62V0Z" fill="white"/>
</mask>
<g mask="url(#mask0_692_2468)">
<path d="M76 23.8638V34.9332C76 57.6116 58.9874 75.9998 38 75.9998C17.0126 75.9998 0 57.6116 0 34.9332V23.8638L39.6644 64.881L76 23.8638Z" fill="url(#paint0_linear_692_2468)"/>
<path d="M1.6644 23.8145C1.1856 23.8145 0.7106 23.8145 0.2394 23.8525C0.0808218 25.2478 0.000895557 26.651 0 28.0553C0 48.9553 17.0126 65.9109 38 65.9109C38.4788 65.9109 38.95 65.9109 39.425 65.8767C39.5816 64.4813 39.6617 63.078 39.6644 61.6739C39.6644 40.7663 22.6518 23.8145 1.6644 23.8145Z" fill="url(#paint1_linear_692_2468)"/>
<path d="M75.7644 23.8639C55.6586 24.8519 39.6644 41.4009 39.6644 61.6739C39.6644 40.7739 22.6518 23.8145 1.6644 23.8145C1.1856 23.8145 0.7106 23.8145 0.2394 23.8525C0.0808218 25.2478 0.000895557 26.651 0 28.0553C0 48.9553 17.0126 65.9109 38 65.9109C38.4788 65.9109 38.95 65.9109 39.425 65.8767C39.5846 65.8767 39.7442 65.8767 39.9 65.8767C60.0058 64.8887 76 48.3397 76 28.0667C75.9989 26.6625 75.9202 25.2594 75.7644 23.8639Z" fill="url(#paint2_linear_692_2468)"/>
<path d="M37.9998 27.36C45.555 27.36 51.6798 21.2353 51.6798 13.68C51.6798 6.12473 45.555 0 37.9998 0C30.4446 0 24.3198 6.12473 24.3198 13.68C24.3198 21.2353 30.4446 27.36 37.9998 27.36Z" fill="#6F4A9E"/>
<path d="M236.031 23.7729C240.591 23.7729 244.285 25.1637 247.112 27.9453C249.939 30.6813 251.353 34.6485 251.353 39.8469V61.9401H245.197V40.7361C245.197 36.9969 244.262 34.147 242.393 32.1862C240.523 30.1798 237.969 29.1765 234.732 29.1765C231.449 29.1765 228.827 30.2025 226.866 32.2545C224.951 34.3065 223.993 37.2933 223.993 41.2149V61.9401H217.769V24.4569H223.993V29.7921C225.224 27.8769 226.889 26.395 228.986 25.3462C231.129 24.2974 233.478 23.7729 236.031 23.7729Z" fill="black"/>
<path d="M261.452 62.3503C260.267 62.3503 259.263 61.9399 258.443 61.1191C257.622 60.2983 257.211 59.2951 257.211 58.1095C257.211 56.9239 257.622 55.9207 258.443 55.0999C259.263 54.2791 260.267 53.8687 261.452 53.8687C262.592 53.8687 263.55 54.2791 264.325 55.0999C265.146 55.9207 265.556 56.9239 265.556 58.1095C265.556 59.2951 265.146 60.2983 264.325 61.1191C263.55 61.9399 262.592 62.3503 261.452 62.3503Z" fill="black"/>
<path fill-rule="evenodd" clip-rule="evenodd" d="M211.4 45.5241C211.536 44.2017 211.605 42.9477 211.605 41.7621C211.605 38.3421 210.852 35.2869 209.347 32.5965C207.888 29.8605 205.791 27.7173 203.055 26.1669C200.319 24.6165 197.172 23.8413 193.616 23.8413C189.968 23.8413 186.73 24.6393 183.903 26.2353C181.121 27.7857 178.955 30.0201 177.405 32.9385C175.854 35.8569 175.079 39.2541 175.079 43.1301C175.079 47.0061 175.877 50.4261 177.473 53.3901C179.069 56.3085 181.258 58.5657 184.039 60.1617C186.867 61.7577 190.059 62.5557 193.616 62.5557C198.084 62.5557 201.823 61.4385 204.833 59.2041C207.843 56.9241 209.849 53.9829 210.852 50.3805H204.149C203.42 52.4781 202.143 54.1653 200.319 55.4421C198.54 56.6733 196.306 57.2889 193.616 57.2889C190.332 57.2889 187.528 56.2629 185.202 54.2109C182.922 52.1133 181.668 49.2177 181.44 45.5241H211.4ZM203.602 34.3749C204.651 36.0621 205.175 38.0913 205.175 40.4625H181.509C181.828 36.9057 183.082 34.1241 185.271 32.1177C187.505 30.1113 190.196 29.1081 193.342 29.1081C195.531 29.1081 197.514 29.5641 199.293 30.4761C201.117 31.3425 202.553 32.6421 203.602 34.3749Z" fill="black"/>
<path d="M155.069 56.1946L166.697 24.457H173.331L158.625 61.9402H151.375L136.669 24.457H143.372L155.069 56.1946Z" fill="black"/>
<path fill-rule="evenodd" clip-rule="evenodd" d="M96.9438 33.0069C95.3934 35.8797 94.6182 39.2313 94.6182 43.0617C94.6182 46.8465 95.3934 50.2209 96.9438 53.1849C98.4942 56.1489 100.615 58.4517 103.305 60.0933C105.995 61.7349 109.005 62.5557 112.334 62.5557C115.571 62.5557 118.399 61.8489 120.815 60.4353C123.278 58.9761 125.125 57.1521 126.356 54.9633V61.9401H132.649V24.4569H126.356V31.2969C125.17 29.1537 123.369 27.3753 120.952 25.9617C118.535 24.5481 115.685 23.8413 112.402 23.8413C109.073 23.8413 106.041 24.6393 103.305 26.2353C100.615 27.8313 98.4942 30.0885 96.9438 33.0069ZM124.646 35.7429C125.786 37.8405 126.356 40.3029 126.356 43.1301C126.356 45.9573 125.786 48.4425 124.646 50.5857C123.506 52.6833 121.955 54.3021 119.995 55.4421C118.079 56.5365 115.959 57.0837 113.633 57.0837C111.308 57.0837 109.187 56.5365 107.272 55.4421C105.357 54.3021 103.829 52.6833 102.689 50.5857C101.549 48.4425 100.979 45.9345 100.979 43.0617C100.979 40.2345 101.549 37.7721 102.689 35.6745C103.829 33.5769 105.357 31.9809 107.272 30.8865C109.187 29.7921 111.308 29.2449 113.633 29.2449C115.959 29.2449 118.079 29.8149 119.995 30.9549C121.955 32.0493 123.506 33.6453 124.646 35.7429Z" fill="black"/>
</g>
</g>
<defs>
<linearGradient id="paint0_linear_692_2468" x1="38" y1="79.5794" x2="38" y2="54.5944" gradientUnits="userSpaceOnUse">
<stop stop-color="#FF8A11"/>
<stop offset="1" stop-color="#E81894"/>
</linearGradient>
<linearGradient id="paint1_linear_692_2468" x1="43.5898" y1="72.6901" x2="12.483" y2="36.2595" gradientUnits="userSpaceOnUse">
<stop stop-color="#B03B83"/>
<stop offset="1" stop-color="#6F4A9E"/>
</linearGradient>
<linearGradient id="paint2_linear_692_2468" x1="38" y1="58.3527" x2="38" y2="30.9129" gradientUnits="userSpaceOnUse">
<stop stop-color="#FF8A11"/>
<stop offset="1" stop-color="#E81894"/>
</linearGradient>
<clipPath id="clip0_692_2468">
<rect width="265.62" height="76" fill="white"/>
</clipPath>
</defs>
</svg>
