<svg width="317" height="76" viewBox="0 0 317 76" fill="none" xmlns="http://www.w3.org/2000/svg">
<g clip-path="url(#clip0_692_2498)">
<path d="M48.6399 20.52C49.8992 20.52 50.9199 19.4992 50.9199 18.24C50.9199 16.9808 49.8992 15.96 48.6399 15.96C47.3805 15.96 46.3599 16.9808 46.3599 18.24C46.3599 19.4992 47.3805 20.52 48.6399 20.52Z" fill="#02BB36"/>
<path d="M24.3198 22.04C25.1593 22.04 25.8398 21.3595 25.8398 20.52C25.8398 19.6805 25.1593 19 24.3198 19C23.4803 19 22.7998 19.6805 22.7998 20.52C22.7998 21.3595 23.4803 22.04 24.3198 22.04Z" fill="#02BB36"/>
<path d="M33.4398 29.6401C33.4398 32.1585 31.3982 34.2001 28.8798 34.2001C26.3614 34.2001 24.3198 32.1585 24.3198 29.6401C24.3198 27.1217 26.3614 25.0801 28.8798 25.0801C31.3982 25.0801 33.4398 27.1217 33.4398 29.6401Z" fill="#02BB36"/>
<path d="M32.6801 56.2402C32.6801 58.7584 30.6385 60.8002 28.1201 60.8002C25.6016 60.8002 23.5601 58.7584 23.5601 56.2402C23.5601 53.7219 25.6016 51.6802 28.1201 51.6802C30.6385 51.6802 32.6801 53.7219 32.6801 56.2402Z" fill="#02BB36"/>
<path d="M23.5598 42.18C23.5598 42.8097 23.0494 43.32 22.4198 43.32C21.7902 43.32 21.2798 42.8097 21.2798 42.18C21.2798 41.5504 21.7902 41.04 22.4198 41.04C23.0494 41.04 23.5598 41.5504 23.5598 42.18Z" fill="#02BB36"/>
<path d="M51.68 44.4602C52.3097 44.4602 52.82 43.9498 52.82 43.3202C52.82 42.6905 52.3097 42.1802 51.68 42.1802C51.0504 42.1802 50.54 42.6905 50.54 43.3202C50.54 43.9498 51.0504 44.4602 51.68 44.4602Z" fill="#02BB36"/>
<path d="M41.8 60.4198C41.8 61.0494 41.2897 61.5598 40.66 61.5598C40.0304 61.5598 39.52 61.0494 39.52 60.4198C39.52 59.7901 40.0304 59.2798 40.66 59.2798C41.2897 59.2798 41.8 59.7901 41.8 60.4198Z" fill="#02BB36"/>
<path d="M38 38C38.8394 38 39.52 37.3194 39.52 36.48C39.52 35.6405 38.8394 34.96 38 34.96C37.1605 34.96 36.48 35.6405 36.48 36.48C36.48 37.3194 37.1605 38 38 38Z" fill="#02BB36"/>
<path d="M34.9601 43.7C34.9601 45.1691 33.7692 46.36 32.3001 46.36C30.8311 46.36 29.6401 45.1691 29.6401 43.7C29.6401 42.231 30.8311 41.04 32.3001 41.04C33.7692 41.04 34.9601 42.231 34.9601 43.7Z" fill="#02BB36"/>
<path d="M53.9599 31.3501C53.9599 34.8129 51.1529 37.6201 47.6899 37.6201C44.227 37.6201 41.4199 34.8129 41.4199 31.3501C41.4199 27.8873 44.227 25.0801 47.6899 25.0801C51.1529 25.0801 53.9599 27.8873 53.9599 31.3501Z" fill="#02BB36"/>
<path d="M36.8599 23.5602C38.7489 23.5602 40.2799 22.029 40.2799 20.1402C40.2799 18.2514 38.7489 16.7202 36.8599 16.7202C34.9711 16.7202 33.4399 18.2514 33.4399 20.1402C33.4399 22.029 34.9711 23.5602 36.8599 23.5602Z" fill="#02BB36"/>
<path d="M50.92 50.5398C50.92 53.6878 48.3679 56.2398 45.22 56.2398C42.0721 56.2398 39.52 53.6878 39.52 50.5398C39.52 47.3919 42.0721 44.8398 45.22 44.8398C48.3679 44.8398 50.92 47.3919 50.92 50.5398Z" fill="#02BB36"/>
<path d="M12.6388 70.3002C11.2505 70.3314 9.86526 70.1585 8.5272 69.7872C7.57389 69.5182 6.71289 68.9922 6.0382 68.2672C5.32422 67.4437 4.81741 66.4611 4.56 65.402C4.18479 63.855 4.01109 62.2662 4.0432 60.6748V48.1348C4.0432 45.8016 3.6822 44.103 2.9412 42.9478C2.24111 41.9119 1.20056 41.1538 0 40.8046V34.47C2.0254 33.7898 4.0546 32.057 4.0546 27.8542V15.3142C4.0546 11.7498 4.712 9.2342 6.004 7.794C7.296 6.3538 9.5722 5.7002 12.8364 5.7002H17.1V11.955H16.9556C16.1135 11.9454 15.2717 11.9936 14.4362 12.0994C13.6806 12.1822 12.9691 12.4968 12.3994 13C11.8657 13.5348 11.5157 14.2255 11.4 14.9722C11.2612 15.7892 11.1989 16.6174 11.2138 17.446V28.5192C11.2249 29.6256 11.1601 30.7314 11.02 31.829C10.9295 32.5345 10.7335 33.2223 10.4386 33.8696C10.1655 34.4423 9.78644 34.958 9.3214 35.3896C8.66993 35.9872 7.97935 36.5407 7.2542 37.0464L5.8368 38.0496L7.2846 39.0072C7.99474 39.4598 8.65127 39.9914 9.2416 40.5918C9.71565 41.0896 10.1081 41.6588 10.4044 42.279C10.7161 42.9505 10.9237 43.6656 11.02 44.3994C11.1541 45.4273 11.2175 46.4636 11.21 47.5002V58.5734C11.1967 59.3805 11.259 60.1873 11.3962 60.9826C11.5069 61.7092 11.8355 62.3848 12.3386 62.9206C12.8757 63.4332 13.5578 63.7672 14.2918 63.8782C15.1509 64.018 16.0208 64.0804 16.891 64.0644H17.1V70.3002H12.6388Z" fill="black"/>
<path d="M63.3611 70.2999C64.7492 70.331 66.1347 70.1581 67.4727 69.7869C68.4261 69.5178 69.2872 68.9919 69.9617 68.2669C70.6704 67.4442 71.1731 66.4649 71.4285 65.4093C71.8036 63.8623 71.9776 62.2735 71.9453 60.6821V48.1421C71.9453 45.8089 72.3063 44.1103 73.0473 42.9551C73.7484 41.9127 74.7934 41.1501 75.9999 40.8005V34.4697C73.9745 33.7895 71.9453 32.0567 71.9453 27.8539V15.3139C71.9453 11.7495 71.2879 9.23388 69.9959 7.79368C68.7039 6.35348 66.4277 5.68848 63.1559 5.68848H58.8999V11.9547H59.0443C59.8864 11.9451 60.7281 11.9933 61.5637 12.0991C62.3191 12.1818 63.0309 12.4964 63.6005 12.9997C64.1344 13.5345 64.4844 14.2252 64.5999 14.9719C64.7386 15.7889 64.8009 16.6171 64.7861 17.4457V28.5189C64.7713 29.625 64.8321 30.7309 64.9685 31.8287C65.0589 32.5341 65.255 33.222 65.5499 33.8693C65.8231 34.4419 66.202 34.9577 66.6671 35.3893C67.3184 35.9869 68.0093 36.5404 68.7343 37.0461L70.1517 38.0493L68.7039 39.0069C67.9937 39.4595 67.3374 39.9911 66.7469 40.5915C66.273 41.0893 65.8805 41.6585 65.5841 42.2787C65.271 42.9547 65.0635 43.6752 64.9685 44.4143C64.8378 45.4361 64.777 46.4659 64.7861 47.4961V58.5693C64.7994 59.3764 64.7371 60.1831 64.5999 60.9785C64.5091 61.7149 64.1747 62.3997 63.6499 62.9241C63.1255 63.4489 62.4407 63.7833 61.7043 63.8741C60.8451 64.0139 59.9753 64.0762 59.1051 64.0603H58.8999V70.2999H63.3611Z" fill="black"/>
<path fill-rule="evenodd" clip-rule="evenodd" d="M179.967 58.5768C179.064 59.9805 177.964 61.0829 176.665 61.8831C175.339 62.6929 173.776 63.0976 171.977 63.0976C170.11 63.0976 168.434 62.7267 166.95 61.9846C165.488 61.2425 164.229 60.1405 163.172 58.6786C162.137 57.2167 161.35 55.4064 160.81 53.2473C160.271 51.0657 160.001 48.5356 160.001 45.6571V42.7897C160.001 39.7987 160.271 37.2124 160.81 35.0309C161.35 32.8269 162.137 30.994 163.172 29.5323C164.229 28.0704 165.5 26.9909 166.984 26.2938C168.468 25.5966 170.144 25.248 172.01 25.248C173.832 25.248 175.406 25.664 176.733 26.4962C177.826 27.1632 178.782 28.0668 179.6 29.2071V10.6074H187.461V62.4231L180.342 62.4566L179.967 58.5768ZM179.6 35.5866C179.388 35.1565 179.151 34.7576 178.892 34.39C178.352 33.6253 177.689 33.0294 176.902 32.602C176.137 32.1522 175.237 31.9274 174.203 31.9274C173.056 31.9274 172.078 32.1522 171.268 32.602C170.459 33.0294 169.806 33.6928 169.311 34.5923C168.817 35.4695 168.446 36.5939 168.198 37.9657C167.973 39.3149 167.861 40.9231 167.861 42.7897V45.6571C167.861 47.5237 167.973 49.1319 168.198 50.4812C168.423 51.8306 168.783 52.9436 169.278 53.8207C169.773 54.6753 170.425 55.3164 171.235 55.7435C172.044 56.1486 173.022 56.3507 174.169 56.3507C175.609 56.3507 176.778 55.9909 177.677 55.2715C178.48 54.6445 179.121 53.8302 179.6 52.8285V35.5866Z" fill="#02BB36"/>
<path fill-rule="evenodd" clip-rule="evenodd" d="M201.108 62.0519C202.952 62.7492 205.055 63.0976 207.416 63.0976C209.507 63.0976 211.329 62.8278 212.881 62.2882C214.455 61.7483 215.793 61.0624 216.895 60.2302C217.997 59.3755 218.874 58.5099 219.527 57.6329L216.052 52.8088C215.085 53.9108 213.938 54.8102 212.611 55.5075C211.306 56.182 209.743 56.5195 207.922 56.5195C206.685 56.5195 205.594 56.3397 204.65 55.9799C203.728 55.5976 202.941 55.0128 202.288 54.2258C201.636 53.416 201.141 52.3816 200.804 51.1219C200.499 49.9018 200.341 48.4175 200.332 46.6691H219.931V42.7224C219.931 39.8888 219.661 37.3811 219.121 35.1996C218.604 33.0181 217.795 31.1852 216.693 29.7009C215.613 28.2166 214.23 27.1034 212.544 26.3613C210.857 25.6191 208.866 25.248 206.573 25.248C204.548 25.248 202.67 25.5966 200.939 26.2938C199.23 26.991 197.745 28.0592 196.486 29.4985C195.227 30.9379 194.237 32.782 193.517 35.0309C192.82 37.2574 192.472 39.9112 192.472 42.9922V46.5004C192.472 49.2216 192.809 51.6167 193.484 53.6858C194.158 55.7325 195.137 57.4641 196.419 58.8808C197.7 60.2754 199.263 61.3322 201.108 62.0519ZM200.391 40.732C200.455 39.6034 200.57 38.6025 200.737 37.7296C201.006 36.2903 201.389 35.1434 201.884 34.2888C202.401 33.4342 203.053 32.8157 203.84 32.4334C204.627 32.0511 205.527 31.8599 206.539 31.8599C207.933 31.8599 209.024 32.186 209.811 32.8382C210.62 33.4679 211.205 34.39 211.565 35.6044C211.925 36.7963 212.128 38.2244 212.172 39.8888V40.732H200.391Z" fill="#02BB36"/>
<path fill-rule="evenodd" clip-rule="evenodd" d="M127.631 45.6572V42.7224C127.631 39.8888 127.979 37.3811 128.677 35.1996C129.374 33.0181 130.363 31.1965 131.645 29.7347C132.95 28.2504 134.479 27.1371 136.233 26.395C137.987 25.6304 139.921 25.248 142.035 25.248C144.194 25.248 146.151 25.6304 147.905 26.395C149.681 27.1371 151.211 28.2504 152.493 29.7347C153.797 31.1965 154.798 33.0181 155.495 35.1996C156.192 37.3811 156.541 39.8888 156.541 42.7224V45.6572C156.541 48.4908 156.192 50.9984 155.495 53.18C154.798 55.3612 153.797 57.1943 152.493 58.6786C151.211 60.1405 149.693 61.2425 147.939 61.9846C146.185 62.7268 144.239 63.0976 142.103 63.0976C139.989 63.0976 138.043 62.7268 136.267 61.9846C134.513 61.2425 132.983 60.1405 131.679 58.6786C130.374 57.1943 129.374 55.3612 128.677 53.18C127.979 50.9984 127.631 48.4908 127.631 45.6572ZM135.491 42.7224V45.6572C135.491 47.4789 135.648 49.0756 135.963 50.4474C136.278 51.7968 136.728 52.9212 137.312 53.8207C137.897 54.7205 138.594 55.395 139.404 55.845C140.214 56.2945 141.113 56.5195 142.103 56.5195C143.205 56.5195 144.16 56.2945 144.97 55.845C145.802 55.395 146.488 54.7205 147.028 53.8207C147.59 52.9212 148.006 51.7968 148.276 50.4474C148.546 49.0756 148.681 47.4789 148.681 45.6572V42.7224C148.681 40.9231 148.524 39.3488 148.209 37.9995C147.894 36.6277 147.444 35.492 146.859 34.5924C146.274 33.6703 145.566 32.9844 144.734 32.5346C143.924 32.0848 143.025 31.8599 142.035 31.8599C141.068 31.8599 140.18 32.0848 139.37 32.5346C138.583 32.9844 137.897 33.6703 137.312 34.5924C136.728 35.492 136.278 36.6277 135.963 37.9995C135.648 39.3488 135.491 40.9231 135.491 42.7224Z" fill="#02BB36"/>
<path d="M124.273 46.3997H116.109C115.974 48.8735 115.625 50.8301 115.063 52.2695C114.501 53.7086 113.635 54.7319 112.466 55.3392C111.318 55.9464 109.778 56.25 107.844 56.25C106.225 56.25 104.876 55.9464 103.796 55.3392C102.716 54.7095 101.85 53.7986 101.198 52.6066C100.546 51.3925 100.074 49.9192 99.7816 48.1876C99.489 46.4559 99.3431 44.4655 99.3431 42.2166V33.4458C99.3431 31.1069 99.5115 29.0716 99.8489 27.3399C100.209 25.5857 100.737 24.1352 101.435 22.9882C102.154 21.8188 103.065 20.9417 104.167 20.3569C105.291 19.7722 106.63 19.4799 108.181 19.4799C110.048 19.4799 111.532 19.806 112.634 20.4582C113.759 21.1104 114.591 22.1786 115.131 23.6629C115.693 25.1247 116.03 27.0813 116.143 29.5326H124.306C124.104 25.9118 123.373 22.842 122.113 20.3232C120.854 17.8044 119.066 15.8928 116.75 14.5884C114.433 13.284 111.577 12.6318 108.181 12.6318C105.528 12.6318 103.143 13.1041 101.03 14.0487C98.938 14.9707 97.1615 16.3314 95.6997 18.1305C94.2378 19.9297 93.1134 22.1224 92.3264 24.7087C91.5615 27.2949 91.1792 30.2298 91.1792 33.5133V42.2166C91.1792 45.5002 91.5505 48.4349 92.2926 51.0212C93.0572 53.6075 94.1592 55.8001 95.5986 57.5994C97.0377 59.3759 98.7807 60.7367 100.827 61.6814C102.896 62.6257 105.235 63.098 107.844 63.098C111.285 63.098 114.197 62.4459 116.581 61.1414C118.988 59.8372 120.832 57.9479 122.113 55.4741C123.395 52.9778 124.115 49.953 124.273 46.3997Z" fill="#02BB36"/>
<path fill-rule="evenodd" clip-rule="evenodd" d="M291.197 10.6074H294.975V30.9779C295.356 30.2708 295.784 29.6203 296.257 29.0262C297.224 27.8118 298.371 26.8785 299.698 26.2263C301.024 25.5741 302.576 25.248 304.353 25.248C306.242 25.248 307.918 25.5741 309.379 26.2263C310.841 26.8785 312.078 27.8905 313.09 29.2624C314.102 30.6342 314.867 32.4221 315.384 34.6261C315.901 36.8075 316.16 39.4274 316.16 42.486V45.8931C316.16 48.8393 315.901 51.3921 315.384 53.5509C314.867 55.71 314.102 57.4979 313.09 58.9146C312.078 60.3316 310.841 61.3884 309.379 62.0857C307.94 62.783 306.287 63.1314 304.42 63.1314C302.599 63.1314 301.002 62.8054 299.63 62.1529C298.258 61.5009 297.089 60.59 296.122 59.4207C295.67 58.861 295.259 58.2496 294.889 57.5869L294.705 62.4231H291.197V10.6074ZM294.975 35.3309V53.4977C295.201 54.0312 295.46 54.5548 295.751 55.069C296.515 56.3959 297.55 57.4751 298.854 58.3073C300.159 59.1171 301.755 59.5218 303.644 59.5218C305.174 59.5218 306.478 59.252 307.558 58.7124C308.66 58.15 309.571 57.3068 310.29 56.182C311.01 55.0576 311.538 53.652 311.876 51.9655C312.213 50.2563 312.382 48.232 312.382 45.8931V42.486C312.382 40.1696 312.213 38.1571 311.876 36.4477C311.561 34.7161 311.043 33.288 310.324 32.1635C309.627 31.039 308.716 30.2069 307.591 29.6672C306.489 29.1049 305.151 28.8238 303.577 28.8238C302.025 28.8238 300.687 29.1162 299.562 29.7009C298.461 30.2631 297.539 31.0165 296.796 31.9611C296.077 32.9057 295.503 33.9402 295.076 35.0646C295.042 35.1535 295.008 35.2423 294.975 35.3309Z" fill="black"/>
<path fill-rule="evenodd" clip-rule="evenodd" d="M277.178 59.9942C278.023 59.1688 278.731 58.2922 279.301 57.3638C279.329 58.0311 279.374 58.7166 279.438 59.4208C279.551 60.6352 279.731 61.6358 279.978 62.4231H283.959V61.9846C283.666 61.13 283.43 60.028 283.25 58.6786C283.093 57.3292 283.014 56.0137 283.014 54.7316V36.0767C283.014 33.4454 282.531 31.3314 281.563 29.7347C280.619 28.1379 279.303 26.991 277.617 26.2938C275.93 25.5966 273.996 25.248 271.815 25.248C270.038 25.248 268.418 25.5404 266.957 26.1251C265.517 26.7098 264.28 27.5082 263.246 28.5202C262.212 29.5098 261.413 30.6567 260.851 31.9611C260.288 33.243 260.008 34.5811 260.008 35.9755L263.752 36.0092C263.752 34.5924 264.078 33.3442 264.73 32.2647C265.405 31.1627 266.338 30.3082 267.53 29.7009C268.744 29.0712 270.128 28.7564 271.679 28.7564C273.321 28.7564 274.704 29.0038 275.829 29.4985C276.953 29.9933 277.808 30.7804 278.392 31.8599C278.977 32.9169 279.27 34.3 279.27 36.0092V41.1032H273.096C270.802 41.1032 268.79 41.3955 267.058 41.9803C265.326 42.5647 263.887 43.3859 262.74 44.4427C261.593 45.4774 260.727 46.7029 260.142 48.1199C259.58 49.5366 259.299 51.0885 259.299 52.7749C259.299 55.0466 259.704 56.958 260.513 58.5099C261.346 60.0614 262.504 61.2197 263.988 61.9846C265.495 62.7492 267.249 63.1315 269.251 63.1315C270.915 63.1315 272.41 62.8392 273.737 62.2544C275.064 61.6696 276.211 60.9161 277.178 59.9942ZM278.021 55.4064C278.544 54.6882 278.96 53.9476 279.27 53.1846V44.3078H273.67C271.916 44.3078 270.375 44.4989 269.048 44.8812C267.721 45.2635 266.608 45.8145 265.708 46.5342C264.831 47.2539 264.168 48.1085 263.718 49.0981C263.268 50.0876 263.043 51.212 263.043 52.4713C263.043 54.0905 263.302 55.4175 263.819 56.4522C264.336 57.4641 265.09 58.2173 266.08 58.7124C267.091 59.1844 268.295 59.4208 269.689 59.4208C271.533 59.4208 273.153 59.0609 274.547 58.3412C275.964 57.599 277.122 56.6209 278.021 55.4064Z" fill="black"/>
<path d="M255.569 62.4231V58.8135H235.396V13.3062H231.483V62.4231H255.569Z" fill="black"/>
</g>
<defs>
<clipPath id="clip0_692_2498">
<rect width="316.54" height="76" fill="white"/>
</clipPath>
</defs>
</svg>
