<svg width="227" height="76" viewBox="0 0 227 76" fill="none" xmlns="http://www.w3.org/2000/svg">
<g clip-path="url(#clip0_692_2576)">
<mask id="mask0_692_2576" style="mask-type:luminance" maskUnits="userSpaceOnUse" x="0" y="0" width="227" height="76">
<path d="M226.86 0H0V76H226.86V0Z" fill="white"/>
</mask>
<g mask="url(#mask0_692_2576)">
<path d="M52.1968 76.0002H24.5633C24.5553 69.596 22.0076 63.4564 17.4791 58.9279C12.9506 54.3994 6.81099 51.8515 0.406738 51.8436V24.21C28.9637 24.21 52.1968 47.4432 52.1968 76.0002Z" fill="url(#paint0_linear_692_2576)"/>
<path d="M76.3538 24.21V51.8436C69.9493 51.8515 63.8097 54.3994 59.2812 58.9279C54.7527 63.4564 52.2052 69.596 52.1972 76.0002H24.5635C24.5635 47.4432 47.7968 24.21 76.3538 24.21Z" fill="url(#paint1_linear_692_2576)"/>
<path d="M38.3802 27.36C45.9354 27.36 52.0602 21.2353 52.0602 13.68C52.0602 6.12473 45.9354 0 38.3802 0C30.8249 0 24.7002 6.12473 24.7002 13.68C24.7002 21.2353 30.8249 27.36 38.3802 27.36Z" fill="url(#paint2_linear_692_2576)"/>
<path d="M225.858 54.2915L226.786 58.584L226.554 58.9902C225.742 59.5701 224.524 59.9763 222.9 59.9763C218.897 59.9763 216.867 57.4239 216.867 53.4795V42.342C216.867 37.9336 214.257 35.0332 209.906 35.0332C205.555 35.0332 202.597 37.9336 202.597 42.342V59.2801H196.216V37.6435C196.216 36.0774 195.984 35.0912 194.882 35.0912C194.476 35.0912 194.186 35.2653 193.954 35.4393L193.548 35.2653L192.62 30.9727L192.852 30.5667C193.664 29.9866 194.882 29.5806 196.39 29.5806C199.001 29.5806 200.915 30.9147 201.669 33.235C203.931 30.9727 207.238 29.5806 211.124 29.5806C218.491 29.5806 223.19 34.5692 223.19 41.8199V51.9131C223.19 53.4795 223.48 54.4656 224.524 54.4656C224.93 54.4656 225.22 54.2915 225.452 54.1175L225.858 54.2915Z" fill="black"/>
<path d="M190.906 54.2915L191.834 58.584L191.602 58.9902C190.79 59.5123 189.572 59.9763 188.121 59.9763C185.279 59.9763 183.365 58.41 182.727 55.7416C180.174 58.2941 176.636 59.9763 172.401 59.9763C163.875 59.9763 157.842 53.2473 157.842 44.7786C157.842 36.2514 163.875 29.5806 172.401 29.5806C176.636 29.5806 180.117 31.2628 182.669 33.7571V30.2767H188.238V51.9131C188.238 53.5376 188.586 54.4656 189.572 54.4656C190.094 54.4656 190.384 54.2334 190.5 54.1175L190.906 54.2915ZM173.388 54.4656C178.434 54.4656 182.495 50.9851 182.495 44.7786C182.495 38.5135 178.434 35.0912 173.446 35.0912C167.819 35.0912 164.281 39.4419 164.281 44.7786C164.281 50.1731 167.877 54.4656 173.388 54.4656Z" fill="black"/>
<path d="M147.415 30.2767H153.679V54.2334C153.679 63.5145 146.951 68.0973 139.004 68.0973C133.377 68.0973 128.969 65.7189 126.126 62.1807V61.7745L129.027 58.294H129.491C131.521 60.9624 134.885 63.1086 139.062 63.1086C143.76 63.1086 147.531 60.3244 147.531 54.9877V53.4795C145.443 55.5676 142.542 56.844 138.946 56.844C132.507 56.844 127.402 53.0155 127.402 45.3585V37.6435C127.402 36.0774 127.113 35.0912 126.068 35.0912C125.662 35.0912 125.372 35.2653 125.14 35.4393L124.734 35.2653L123.806 30.9727L124.038 30.5667C124.85 29.9866 126.01 29.5806 127.635 29.5806C131.521 29.5806 133.609 31.9008 133.609 35.9033V44.8945C133.609 49.0129 136.161 51.4491 140.164 51.4491C144.282 51.4491 147.415 48.4908 147.415 44.1402V30.2767Z" fill="black"/>
<path d="M124.295 54.0014L125.513 58.468L125.339 58.8738C124.353 59.57 123.135 59.9762 121.452 59.9762C117.914 59.9762 114.956 57.8299 112.345 54.6395L102.948 43.2702L99.7578 46.7507V59.28H93.3191V29.6384C93.3191 27.7242 93.0873 26.6221 91.8109 26.6221C91.3469 26.6221 90.9407 26.7961 90.767 27.0281L90.3026 26.8541L89.2588 22.3296L89.5487 21.8655C90.2449 21.4014 91.6368 20.8794 93.4931 20.8794C97.6116 20.8794 99.7578 23.7217 99.7578 27.7242V38.9774L115.826 21.5755H123.135L123.367 21.9235L107.589 39.1514L117.508 50.985C119.654 53.4793 120.873 54.2332 122.207 54.2332C122.845 54.2332 123.425 54.0592 123.831 53.8274L124.295 54.0014Z" fill="black"/>
</g>
</g>
<defs>
<linearGradient id="paint0_linear_692_2576" x1="31.6541" y1="58.4632" x2="5.49493" y2="34.3788" gradientUnits="userSpaceOnUse">
<stop stop-color="#B03B83"/>
<stop offset="1" stop-color="#E72E6C"/>
</linearGradient>
<linearGradient id="paint1_linear_692_2576" x1="48.0666" y1="68.9018" x2="57.3196" y2="35.8608" gradientUnits="userSpaceOnUse">
<stop stop-color="#B03B83"/>
<stop offset="1" stop-color="#6F4A9E"/>
</linearGradient>
<linearGradient id="paint2_linear_692_2576" x1="27.345" y1="2.6448" x2="48.074" y2="23.3738" gradientUnits="userSpaceOnUse">
<stop stop-color="#B03B83"/>
<stop offset="1" stop-color="#6F4A9E"/>
</linearGradient>
<clipPath id="clip0_692_2576">
<rect width="226.86" height="76" fill="white"/>
</clipPath>
</defs>
</svg>
