<svg width="323" height="76" viewBox="0 0 323 76" fill="none" xmlns="http://www.w3.org/2000/svg">
<g clip-path="url(#clip0_692_2440)">
<mask id="mask0_692_2440" style="mask-type:luminance" maskUnits="userSpaceOnUse" x="0" y="0" width="323" height="76">
<path d="M322.24 0H0V76H322.24V0Z" fill="white"/>
</mask>
<g mask="url(#mask0_692_2440)">
<path d="M38.2052 0C15.5154 0 0 14.44 0 38.2052C0 60.895 15.5154 76 38.2052 76C60.895 76 76 60.895 76 38.2052C76 14.44 60.895 0 38.2052 0ZM60.7734 60.7734C59.2944 62.2463 57.6449 63.5371 55.86 64.619V33.44L49.02 29.64V67.64C46.5447 68.3776 43.9964 68.8427 41.42 69.027V19.057L34.58 15.257V69.0042C32.1339 68.8024 29.7147 68.3514 27.36 67.659V31.92L20.52 35.72V64.6722C11.8902 59.5308 6.84 50.2322 6.84 38.19C6.84 28.5266 9.7926 20.5276 15.3824 15.0556C20.8772 9.6862 28.7698 6.84 38.2052 6.84C47.6406 6.84 55.4002 9.6748 60.8 15.0328C66.2758 20.482 69.16 28.4962 69.16 38.2128C69.16 47.5 66.2606 55.29 60.7734 60.7734Z" fill="#F7931E"/>
<path d="M237.861 21.2803H245.453L245.385 55.4802H237.792L237.861 21.2803Z" fill="black"/>
<path d="M241.623 14.7822C240.392 14.7822 239.32 14.349 238.408 13.4826C237.542 12.5706 237.108 11.499 237.108 10.2678C237.108 9.03658 237.542 7.98778 238.408 7.12138C239.32 6.25498 240.392 5.82178 241.623 5.82178C242.854 5.82178 243.903 6.25498 244.769 7.12138C245.681 7.98778 246.137 9.03658 246.137 10.2678C246.137 11.499 245.681 12.5706 244.769 13.4826C243.903 14.349 242.854 14.7822 241.623 14.7822Z" fill="black"/>
<path d="M253.046 55.4802H260.707V37.6279C260.707 34.3903 261.414 31.9051 262.827 30.1723C264.241 28.4395 266.224 27.5959 268.778 27.6415C270.283 27.6415 271.582 27.9379 272.677 28.5307C273.817 29.1235 274.683 30.1723 275.276 31.6771C275.914 33.1363 276.234 35.2339 276.234 37.9699V55.4802H283.894V35.9179C283.894 30.6739 282.754 26.7979 280.474 24.2899C278.24 21.7363 275.048 20.4595 270.898 20.4595C268.208 20.4595 265.882 21.1435 263.922 22.5115C262.606 23.399 261.495 24.574 260.59 26.0366L260.228 21.2803H253.046V55.4802Z" fill="black"/>
<path fill-rule="evenodd" clip-rule="evenodd" d="M296.648 54.0438C299.247 55.5486 302.211 56.301 305.54 56.301C308.139 56.301 310.442 55.9362 312.448 55.2066C314.5 54.477 316.256 53.4282 317.715 52.0602C319.22 50.6922 320.451 49.0962 321.408 47.2722L314.363 44.2626C313.634 45.7218 312.608 46.9302 311.285 47.8878C309.963 48.7998 308.276 49.2558 306.224 49.2558C304.354 49.2558 302.644 48.8454 301.094 48.0246C299.589 47.1582 298.38 45.927 297.468 44.331C296.822 43.1405 296.417 41.7725 296.253 40.227H322.092C322.092 36.1231 321.363 32.5891 319.904 29.6251C318.444 26.6611 316.483 24.4039 314.021 22.8535C311.604 21.2575 308.868 20.4595 305.813 20.4595C302.439 20.4595 299.429 21.2347 296.784 22.7851C294.185 24.2899 292.133 26.3875 290.628 29.0779C289.123 31.7683 288.371 34.8691 288.371 38.3802C288.371 41.8914 289.101 44.9922 290.56 47.6826C292.065 50.373 294.094 52.4934 296.648 54.0438ZM313.668 34.1395C313.55 33.7075 313.417 33.297 313.269 32.9083C312.585 30.9931 311.582 29.5795 310.259 28.6675C308.982 27.7099 307.409 27.2311 305.54 27.2311C303.579 27.2311 301.892 27.6643 300.478 28.5307C299.064 29.3971 297.993 30.6739 297.263 32.3611C297.021 32.9061 296.819 33.4989 296.657 34.1395H313.668Z" fill="black"/>
<path d="M222.517 7.6001V55.4801H230.178V7.6001H222.517Z" fill="black"/>
<path fill-rule="evenodd" clip-rule="evenodd" d="M208.165 55.4801L207.891 50.3744C206.945 51.8766 205.783 53.1226 204.403 54.1121C202.351 55.5713 199.889 56.3009 197.016 56.3009C193.915 56.3009 191.202 55.5713 188.876 54.1121C186.596 52.6073 184.795 50.5097 183.473 47.8193C182.196 45.1289 181.558 41.9825 181.558 38.3801C181.558 34.7321 182.196 31.5857 183.473 28.9409C184.795 26.2505 186.596 24.1757 188.876 22.7165C191.202 21.2117 193.915 20.4593 197.016 20.4593C199.889 20.4593 202.351 21.2117 204.403 22.7165C205.75 23.6534 206.89 24.844 207.823 26.2885V7.6001H215.416V55.4801H208.165ZM206.66 44.0573C207.436 42.4157 207.823 40.5233 207.823 38.3801C207.823 36.2369 207.436 34.3445 206.66 32.7029C205.931 31.0613 204.882 29.7845 203.514 28.8725C202.192 27.9605 200.641 27.5045 198.863 27.5045C197.039 27.5045 195.42 27.9605 194.006 28.8725C192.593 29.7845 191.476 31.0613 190.655 32.7029C189.88 34.3445 189.469 36.2369 189.424 38.3801C189.469 40.5233 189.88 42.4157 190.655 44.0573C191.476 45.6989 192.593 46.9985 194.006 47.9561C195.466 48.8681 197.107 49.3241 198.931 49.3241C200.664 49.3241 202.192 48.8681 203.514 47.9561C204.882 46.9985 205.931 45.6989 206.66 44.0573Z" fill="black"/>
<path d="M168.676 7.6001V55.4801H176.337V7.6001H168.676Z" fill="black"/>
<path fill-rule="evenodd" clip-rule="evenodd" d="M146.032 56.301C142.612 56.301 139.557 55.5486 136.866 54.0438C134.222 52.4934 132.147 50.373 130.642 47.6826C129.137 44.9922 128.385 41.8914 128.385 38.3802C128.385 34.8691 129.114 31.7683 130.574 29.0779C132.078 26.3875 134.153 24.2899 136.798 22.7851C139.443 21.2347 142.475 20.4595 145.895 20.4595C149.315 20.4595 152.348 21.2347 154.992 22.7851C157.638 24.2899 159.689 26.3875 161.148 29.0779C162.653 31.7683 163.406 34.8691 163.406 38.3802C163.406 41.8914 162.676 44.9922 161.217 47.6826C159.758 50.373 157.706 52.4934 155.061 54.0438C152.416 55.5486 149.406 56.301 146.032 56.301ZM146.032 49.2558C147.902 49.2558 149.566 48.7998 151.025 47.8878C152.484 46.9302 153.624 45.6534 154.445 44.0574C155.266 42.4158 155.676 40.5234 155.676 38.3802C155.676 36.2371 155.244 34.3675 154.377 32.7715C153.556 31.1299 152.416 29.8531 150.957 28.9411C149.498 27.9835 147.81 27.5047 145.895 27.5047C143.98 27.5047 142.293 27.9607 140.834 28.8727C139.374 29.7847 138.234 31.0615 137.414 32.7031C136.593 34.3447 136.182 36.2371 136.182 38.3802C136.182 40.5234 136.593 42.4158 137.414 44.0574C138.28 45.6534 139.443 46.9302 140.902 47.8878C142.407 48.7998 144.117 49.2558 146.032 49.2558Z" fill="black"/>
<path fill-rule="evenodd" clip-rule="evenodd" d="M99.0616 69.4338C101.022 69.8442 103.211 70.0494 105.628 70.0494C109.139 70.0494 112.217 69.3426 114.862 67.929C117.507 66.561 119.559 64.509 121.018 61.773C122.477 59.0826 123.207 55.7994 123.207 51.9234V21.2803H115.546V26.7951C114.525 25.0965 113.248 23.7142 111.716 22.6483C109.664 21.1891 107.247 20.4595 104.465 20.4595C101.364 20.4595 98.6512 21.1891 96.3256 22.6483C94.0456 24.1075 92.2444 26.1367 90.922 28.7359C89.6452 31.3351 89.0068 34.4131 89.0068 37.9699C89.0068 41.2986 89.6452 44.2398 90.922 46.7934C92.2444 49.3014 94.0456 51.2622 96.3256 52.6758C98.6512 54.0894 101.364 54.7962 104.465 54.7962C107.247 54.7962 109.664 54.1122 111.716 52.7442C113.248 51.7118 114.525 50.3871 115.546 48.7702V52.1286C115.546 54.6822 115.113 56.7798 114.246 58.4214C113.38 60.063 112.172 61.2714 110.621 62.0466C109.071 62.8674 107.315 63.2778 105.354 63.2778C103.53 63.2778 101.889 63.0954 100.43 62.7306C98.9704 62.3658 97.6936 61.9326 96.5992 61.431C95.5504 60.975 94.7068 60.5874 94.0684 60.2682L91.1272 66.4242C91.8568 66.9258 92.8828 67.4502 94.2052 67.9974C95.5276 68.5446 97.1464 69.0234 99.0616 69.4338ZM111.1 46.9302C109.823 47.8422 108.318 48.2982 106.586 48.2982C104.762 48.2982 103.143 47.8422 101.729 46.9302C100.316 46.0182 99.1984 44.787 98.3776 43.2366C97.6024 41.6406 97.2148 39.8166 97.2148 37.7647C97.2148 35.6671 97.6024 33.8431 98.3776 32.2927C99.1984 30.6967 100.293 29.4655 101.661 28.5991C103.074 27.6871 104.693 27.2311 106.517 27.2311C108.25 27.2311 109.778 27.6871 111.1 28.5991C112.422 29.4655 113.448 30.6967 114.178 32.2927C114.908 33.8431 115.272 35.6671 115.272 37.7647C115.272 39.8166 114.908 41.6406 114.178 43.2366C113.448 44.787 112.422 46.0182 111.1 46.9302Z" fill="black"/>
</g>
</g>
<defs>
<clipPath id="clip0_692_2440">
<rect width="322.24" height="76" fill="white"/>
</clipPath>
</defs>
</svg>
