<svg width="242" height="76" viewBox="0 0 242 76" fill="none" xmlns="http://www.w3.org/2000/svg">
<path d="M8.58046 38.0002C8.58828 31.4105 11.0959 25.0692 15.597 20.2563C20.0981 15.4434 26.2576 12.5174 32.8321 12.069L39.1932 4.11181C30.7368 2.95637 22.1539 5.00466 15.1306 9.85434C8.10728 14.704 3.15113 22.0045 1.23571 30.3218C-0.679714 38.639 0.584036 47.3722 4.77871 54.8053C8.97341 62.2381 15.7958 67.8344 23.9059 70.494L26.3303 62.6508C21.1645 60.9157 16.6732 57.6037 13.4889 53.1816C10.3046 48.7592 8.58787 43.4494 8.58046 38.0002Z" fill="black"/>
<path d="M45.0643 5.44141L42.6627 13.2998C48.4227 15.1817 53.3445 19.0169 56.5764 24.1425C59.8086 29.2682 61.1485 35.362 60.3642 41.3708C59.5799 47.3794 56.7208 52.9251 52.2812 57.0496C47.8417 61.1738 42.101 63.6172 36.0508 63.9576L29.7466 71.8616C38.2372 73.0883 46.8784 71.0796 53.957 66.2335C61.0357 61.3873 66.0346 54.0579 67.9627 45.6986C69.8904 37.3394 68.606 28.5609 64.3648 21.1042C60.1233 13.6474 53.2346 8.05691 45.0643 5.44141Z" fill="black"/>
<path d="M44.5512 31.6198L35.492 30.5064L44.8172 0L18.1602 33.3336L24.6088 43.985L33.668 45.0984L24.1148 76L50.9998 42.275L44.5512 31.6198Z" fill="#FF6022"/>
<path d="M85.186 17.563V56.9998H108.213V53.7709H88.7854V17.563H85.186Z" fill="black"/>
<path d="M152.141 40.0339V56.9998H148.753V17.563H152.141V33.3906C153.094 31.7496 154.32 30.5321 155.82 29.7381C157.32 28.9441 158.987 28.547 160.822 28.547C162.763 28.547 164.51 28.9617 166.063 29.791C167.616 30.6204 168.842 31.8379 169.742 33.4436C170.659 35.0493 171.118 37.0167 171.118 39.3457V56.9998H167.704V39.5578C167.704 37.052 167.033 35.1199 165.692 33.7612C164.369 32.4025 162.56 31.7232 160.267 31.7232C157.99 31.7232 156.067 32.4202 154.497 33.8141C152.926 35.2081 152.141 37.2814 152.141 40.0339Z" fill="black"/>
<path d="M187.199 29.0504V32.0412H181.376V50.7276C181.376 51.9097 181.632 52.7568 182.143 53.2682C182.673 53.7622 183.546 54.0092 184.764 54.0092H187.199V57.0002H184.499C180.141 57.0002 177.962 55.0151 177.962 51.0449V32.0412H173.197V29.0504H177.962V21.4277H181.376V29.0504H187.199Z" fill="black"/>
<path fill-rule="evenodd" clip-rule="evenodd" d="M123.54 66.1577C125.588 67.6401 128.208 68.3811 131.402 68.3811C133.695 68.3811 135.751 67.9753 137.569 67.1636C139.404 66.3519 140.85 65.099 141.909 63.4054C142.985 61.7288 143.524 59.594 143.524 57.0001V29.0503H140.189V34.4761H140.162C139.35 32.5881 138.089 31.1324 136.377 30.1089C134.666 29.0679 132.76 28.5474 130.66 28.5474C128.278 28.5474 126.17 29.1561 124.335 30.3736C122.5 31.5911 121.061 33.2851 120.021 35.4554C118.997 37.6258 118.485 40.149 118.485 43.0252C118.485 45.9014 118.997 48.4334 120.021 50.6214C121.061 52.7916 122.491 54.4856 124.308 55.7032C126.143 56.9032 128.26 57.5028 130.66 57.5028C132.778 57.5028 134.666 56.9914 136.324 55.968C137.983 54.9443 139.253 53.5239 140.136 51.7067H140.162V57.0001C140.162 59.6115 139.395 61.6494 137.86 63.1139C136.324 64.5963 134.172 65.3373 131.402 65.3373C129.231 65.3373 127.449 64.8699 126.055 63.9347C124.679 62.9995 123.779 61.676 123.355 59.9645H119.862C120.268 62.629 121.494 64.6932 123.54 66.1577ZM137.833 51.3096C136.157 53.3563 133.916 54.3796 131.11 54.3796C128.463 54.3796 126.267 53.4004 124.52 51.4418C122.791 49.4655 121.926 46.6599 121.926 43.0252C121.926 39.3901 122.791 36.5847 124.52 34.6084C126.267 32.6322 128.463 31.6441 131.11 31.6441C133.916 31.6441 136.157 32.6763 137.833 34.7408C139.527 36.8053 140.374 39.5668 140.374 43.0252C140.374 46.4836 139.527 49.245 137.833 51.3096Z" fill="black"/>
<path d="M111.457 57.0001V29.0503H114.844V57.0001H111.457Z" fill="black"/>
<path d="M113.151 22.9889C112.48 22.9889 111.898 22.7507 111.404 22.2743C110.927 21.7978 110.689 21.2155 110.689 20.5274C110.689 19.8392 110.927 19.257 111.404 18.7805C111.898 18.3041 112.48 18.0659 113.151 18.0659C113.821 18.0659 114.394 18.3041 114.871 18.7805C115.365 19.257 115.612 19.8392 115.612 20.5274C115.612 21.2155 115.365 21.7978 114.871 22.2743C114.394 22.7507 113.821 22.9889 113.151 22.9889Z" fill="black"/>
<path fill-rule="evenodd" clip-rule="evenodd" d="M208.74 17.563L194.66 56.9998H202.176L205.405 47.5773H220.704L223.854 56.9998H231.555L217.528 17.563H208.74ZM218.798 41.834H207.364L209.27 36.2756C209.87 34.4582 210.478 32.5613 211.096 30.5851C211.714 28.6088 212.393 26.3767 213.134 23.8887C213.875 26.3767 214.545 28.6088 215.145 30.5851C215.763 32.5613 216.363 34.4582 216.945 36.2756L218.798 41.834Z" fill="#FF6022"/>
<path d="M240.543 56.9998V17.563H233.555V56.9998H240.543Z" fill="#FF6022"/>
</svg>
