<svg width="325" height="76" viewBox="0 0 325 76" fill="none" xmlns="http://www.w3.org/2000/svg">
<g clip-path="url(#clip0_692_2536)">
<path d="M11.7798 54.0932V37.1071L27.7398 28.2417L43.6998 37.1071V54.0932L27.7398 62.9586L11.7798 54.0932Z" fill="#FF480D"/>
<path d="M37.2399 20.4782V7.22H42.1799V0H13.2999V7.22H18.2399V20.4782L0.379883 30.4V60.8L27.7399 76L55.0999 60.8V30.4L37.2399 20.4782ZM15.5799 4.94V2.28H39.8999V4.94H15.5799ZM52.8199 59.4586L27.7399 73.3932L2.65988 59.4586V31.7414L19.3457 22.4694L20.5199 21.8196V7.22H34.9599V21.8196L36.1341 22.4694L52.8199 31.7414V59.4586Z" fill="black"/>
<path d="M27.1698 22.4202C28.7438 22.4202 30.0198 21.1442 30.0198 19.5702C30.0198 17.9962 28.7438 16.7202 27.1698 16.7202C25.5958 16.7202 24.3198 17.9962 24.3198 19.5702C24.3198 21.1442 25.5958 22.4202 27.1698 22.4202Z" fill="#FF480D"/>
<path d="M24.1299 12.5401C25.0743 12.5401 25.8399 11.7745 25.8399 10.8301C25.8399 9.8857 25.0743 9.12012 24.1299 9.12012C23.1855 9.12012 22.4199 9.8857 22.4199 10.8301C22.4199 11.7745 23.1855 12.5401 24.1299 12.5401Z" fill="#FF480D"/>
<path d="M30.875 12.5401C31.3472 12.5401 31.73 12.1573 31.73 11.6851C31.73 11.2129 31.3472 10.8301 30.875 10.8301C30.4028 10.8301 30.02 11.2129 30.02 11.6851C30.02 12.1573 30.4028 12.5401 30.875 12.5401Z" fill="#FF480D"/>
<path d="M34.9598 28.8801C35.5894 28.8801 36.0998 28.3697 36.0998 27.7401C36.0998 27.1105 35.5894 26.6001 34.9598 26.6001C34.3302 26.6001 33.8198 27.1105 33.8198 27.7401C33.8198 28.3697 34.3302 28.8801 34.9598 28.8801Z" fill="#FF480D"/>
<path d="M17.4798 31.9201C18.1095 31.9201 18.6198 31.4098 18.6198 30.7801C18.6198 30.1505 18.1095 29.6401 17.4798 29.6401C16.8502 29.6401 16.3398 30.1505 16.3398 30.7801C16.3398 31.4098 16.8502 31.9201 17.4798 31.9201Z" fill="#FF480D"/>
<path d="M167.939 40.0351L154.042 61.1798H148.922L165.412 36.5775L149.587 13.3052H154.84L167.939 33.4524L181.105 13.3052H186.358L170.666 36.5775L187.089 61.1798H181.903L167.939 40.0351Z" fill="#FF480D"/>
<path d="M113.127 61.1798V13.3052H144.978V17.1617H117.649V34.4497H142.318V38.3064H117.649V57.3232H145.642V61.1798H113.127Z" fill="#FF480D"/>
<path d="M65.7402 61.1798V13.3052H70.2619V33.8513H98.5874V13.3052H103.109V61.1798H98.5874V37.7079H70.2619V61.1798H65.7402Z" fill="#FF480D"/>
<path d="M306.632 61.1802H284.944V13.3237H308.19C314.056 13.4103 318.212 15.1094 320.658 18.4211C322.13 20.4556 322.866 22.8907 322.866 25.7261C322.866 28.6481 322.13 30.9966 320.658 32.7714C319.835 33.7671 318.623 34.6762 317.022 35.4987C319.467 36.3861 321.307 37.793 322.541 39.7193C323.796 41.6459 324.424 43.9833 324.424 46.7322C324.424 49.5677 323.71 52.1111 322.281 54.3618C321.372 55.8556 320.236 57.1108 318.872 58.128C317.336 59.2969 315.517 60.0979 313.418 60.5308C311.34 60.9636 309.078 61.1802 306.632 61.1802ZM306.405 40.1092H294.49V52.8684H306.243C308.342 52.8684 309.976 52.5872 311.145 52.0245C313.266 50.9855 314.327 48.994 314.327 46.0505C314.327 43.5615 313.299 41.8515 311.242 40.9208C310.095 40.4014 308.483 40.1308 306.405 40.1092ZM311.372 30.9858C312.671 30.2066 313.32 28.8105 313.32 26.7975C313.32 24.5681 312.454 23.0963 310.723 22.382C309.229 21.8842 307.325 21.6353 305.009 21.6353H294.49V32.187H306.243C308.342 32.187 310.052 31.7866 311.372 30.9858Z" fill="black"/>
<path d="M265.415 51.3427H247.785L244.473 61.1802H234.019L251.097 13.3237H262.395L279.343 61.1802H268.499L265.415 51.3427ZM262.622 43.096L256.648 24.2651L250.48 43.096H262.622Z" fill="black"/>
<path d="M197.412 13.3237H207.411V52.5762H231.112V61.1802H197.412V13.3237Z" fill="black"/>
</g>
<defs>
<clipPath id="clip0_692_2536">
<rect width="324.9" height="76" fill="white"/>
</clipPath>
</defs>
</svg>
