<svg width="341" height="76" viewBox="0 0 341 76" fill="none" xmlns="http://www.w3.org/2000/svg">
<g clip-path="url(#clip0_692_2456)">
<mask id="mask0_692_2456" style="mask-type:luminance" maskUnits="userSpaceOnUse" x="0" y="0" width="341" height="76">
<path d="M340.1 0H0V76H340.1V0Z" fill="white"/>
</mask>
<g mask="url(#mask0_692_2456)">
<path d="M30.6444 75.8101H24.8354V-0.189941L30.6444 4.65084V75.8101Z" fill="url(#paint0_linear_692_2456)"/>
<path d="M12.2495 75.81H18.0584V14.5405L12.2495 19.3813V75.81Z" fill="url(#paint1_linear_692_2456)"/>
<path d="M5.95638 75.8102H0.147461V33.9038L5.95638 29.063V75.8102Z" fill="url(#paint2_linear_692_2456)"/>
<path d="M55.3325 75.8102H49.5234V29.063L55.3325 33.9038V75.8102Z" fill="url(#paint3_linear_692_2456)"/>
<path d="M37.4214 75.81H43.2301V19.3813L37.4214 14.5405V75.81Z" fill="url(#paint4_linear_692_2456)"/>
<path fill-rule="evenodd" clip-rule="evenodd" d="M118.536 54.3912V51.7783H112.077V54.2753C112.077 59.8491 113.881 64.8283 121.652 64.8283C129.424 64.8283 131.493 59.2107 131.493 53.2155C131.493 46.1026 129.583 43.3883 123.35 38.6995C119.69 35.985 119.133 34.3447 119.133 31.5431C119.133 28.7415 119.624 26.898 121.785 26.898C123.947 26.898 124.437 28.727 124.437 31.6302V33.706H130.803V31.4415C130.803 26.8544 129.451 21.2803 121.931 21.2803C114.412 21.2803 112.754 26.898 112.754 32.4576C112.754 38.7139 115.154 41.0365 119.624 44.6073C124.093 48.1786 125.061 49.5865 125.061 54.1301C125.061 56.8734 124.345 59.2833 121.904 59.2833C119.464 59.2833 118.536 57.5266 118.536 54.3912ZM80.9917 64.2184L82.4372 52.9248H88.8694L90.5137 64.2184H97.2245L90.2618 21.9622H81.1904L74.48 64.2184H80.9917ZM85.7527 28.1605C86.23 32.9363 87.1321 39.7445 88.0866 46.9299H83.2861C83.4145 45.9548 83.5536 44.9117 83.6973 43.8321L83.6976 43.831C84.4755 37.9979 85.3951 31.1001 85.5406 28.1605H85.7527ZM167.314 64.2184H162.301C162.118 63.1738 162.003 62.1162 161.956 61.0537C160.802 63.8699 158.375 64.8427 155.696 64.8427C149.569 64.8427 147.593 60.3428 147.593 53.2299V33.3283C147.593 26.4332 150.245 21.3526 157.473 21.3526C166.213 21.3526 167.141 27.8703 167.141 32.4139V33.7784H160.683V32.0945C160.683 29.859 160.364 27.2897 157.433 27.2897C155.086 27.2897 154.091 28.93 154.091 32.3122V53.9265C154.091 57.3088 155.059 59.0652 157.38 59.0652C160.165 59.0652 160.842 56.7138 160.842 52.359V46.1897H157.234V40.5862H167.314V64.2184ZM189.728 64.2184L191.186 52.9248H197.565L199.21 64.2184H205.894L198.931 21.9621H189.86L183.229 64.2184H189.728ZM194.502 28.1605C194.979 32.9362 195.881 39.7441 196.836 46.9295H191.982C192.111 45.9544 192.25 44.911 192.394 43.831V43.8299L192.394 43.8291C193.171 37.9963 194.091 31.0997 194.237 28.1605H194.502ZM227.855 45.3328V64.2036H221.436V21.9621H230.322C236.661 21.9621 240.401 24.546 240.401 32.1233V33.7346C240.401 40.2233 237.748 41.8782 236.17 42.5458C238.597 43.7071 239.976 45.449 239.976 51.2554C239.87 55.5855 239.999 59.9191 240.361 64.2328H234.154C233.685 62.0395 233.71 56.5561 233.725 53.1277C233.728 52.5854 233.73 52.0949 233.73 51.6765C233.73 46.5233 233.067 45.3476 229.34 45.3476L227.855 45.3328ZM227.855 39.9474H229.327C232.722 39.9474 233.969 38.641 233.969 34.054V32.6024C233.969 29.3363 233.306 27.3476 229.672 27.3476H227.855V39.9474ZM266.541 21.9621H257.642V64.2184H266.541C276.434 64.2184 277.522 57.12 277.522 50.6604V34.4604C277.522 26.6073 275.373 21.9621 266.541 21.9621ZM266.183 58.673H264.127V27.5653H266.143C270.387 27.5653 271.05 30.0621 271.05 33.9378V51.5458C271.05 55.915 270.414 58.673 266.183 58.673ZM301.26 21.9621V64.2184H294.841V21.9621H301.26ZM323.514 64.2184L324.973 52.9248H331.378L333.01 64.2184H339.72L332.758 21.9621H323.686L316.975 64.2184H323.514ZM330.274 44.3782C330.385 45.2214 330.497 46.073 330.609 46.9295H325.782C325.862 46.3325 325.945 45.7097 326.032 45.0687C326.846 39.0084 327.88 31.311 328.036 28.1605H328.275C328.695 32.3668 329.455 38.1496 330.274 44.3782Z" fill="#262933"/>
</g>
</g>
<defs>
<linearGradient id="paint0_linear_692_2456" x1="40.3259" y1="69.0187" x2="40.3259" y2="17.3676" gradientUnits="userSpaceOnUse">
<stop stop-color="#FF8A11"/>
<stop offset="1" stop-color="#FFDA6A"/>
</linearGradient>
<linearGradient id="paint1_linear_692_2456" x1="40.3259" y1="69.0186" x2="40.3259" y2="17.3675" gradientUnits="userSpaceOnUse">
<stop stop-color="#FF8A11"/>
<stop offset="1" stop-color="#FFDA6A"/>
</linearGradient>
<linearGradient id="paint2_linear_692_2456" x1="40.3257" y1="69.0188" x2="40.3257" y2="17.3677" gradientUnits="userSpaceOnUse">
<stop stop-color="#FF8A11"/>
<stop offset="1" stop-color="#FFDA6A"/>
</linearGradient>
<linearGradient id="paint3_linear_692_2456" x1="40.3259" y1="69.0188" x2="40.3259" y2="17.3677" gradientUnits="userSpaceOnUse">
<stop stop-color="#FF8A11"/>
<stop offset="1" stop-color="#FFDA6A"/>
</linearGradient>
<linearGradient id="paint4_linear_692_2456" x1="40.3258" y1="69.0186" x2="40.3258" y2="17.3675" gradientUnits="userSpaceOnUse">
<stop stop-color="#FF8A11"/>
<stop offset="1" stop-color="#FFDA6A"/>
</linearGradient>
<clipPath id="clip0_692_2456">
<rect width="340.1" height="76" fill="white"/>
</clipPath>
</defs>
</svg>
